<svg id="Layer_1" data-name="Layer 1" xmlns="http://www.w3.org/2000/svg" viewBox="0 0 174 144"><title>icon-hamburger</title><path d="M172.48,21.56a7.26,7.26,0,0,1-7.21,7.2H6.82a7.25,7.25,0,0,1-7.2-7.2V7.15A7.25,7.25,0,0,1,6.82,0H165.27a7.26,7.26,0,0,1,7.21,7.2Zm0,57.62a7.26,7.26,0,0,1-7.21,7.2H6.82a7.25,7.25,0,0,1-7.2-7.2V64.77a7.25,7.25,0,0,1,7.2-7.2H165.27a7.26,7.26,0,0,1,7.21,7.2Zm0,57.62a7.26,7.26,0,0,1-7.21,7.2H6.82a7.25,7.25,0,0,1-7.2-7.2V122.39a7.25,7.25,0,0,1,7.2-7.2H165.27a7.26,7.26,0,0,1,7.21,7.2Z"/></svg>