<svg id="Layer_1" data-name="Layer 1" xmlns="http://www.w3.org/2000/svg" viewBox="0 0 291 203"><title>logo-stacked</title><path d="M178.4,80c-5.57,5.48-11.92,11.14-18.73,16.9l-1.92,36.39a3.48,3.48,0,0,1-1.54,2.49l-36.87,21.51a2.78,2.78,0,0,1-1.53.39,3.43,3.43,0,0,1-2.21-.86l-6.15-6.15a3.34,3.34,0,0,1-.76-3.07l8.16-26.51-27-27-26.5,8.16a2.59,2.59,0,0,1-.87.1,3.21,3.21,0,0,1-2.21-.86l-6.14-6.14a3.23,3.23,0,0,1-.48-3.75L75.18,54.72a3.51,3.51,0,0,1,2.5-1.54l36.38-1.91c5.76-6.82,11.43-13.16,16.9-18.73C155,8.63,173.3,1,206.72,1A3.2,3.2,0,0,1,210,4C210,35.9,201.15,57.12,178.4,80Zm.86-57.51a9.22,9.22,0,1,0,9.21,9.22A9.22,9.22,0,0,0,179.26,22.46Z"/><path d="M.3,202.47V174H14.94a21.09,21.09,0,0,1,6.23.7,6.64,6.64,0,0,1,3.47,2.59,8,8,0,0,1-2.46,11.47,10.48,10.48,0,0,1-3.09,1.13A8.74,8.74,0,0,1,21.38,191a8.8,8.8,0,0,1,1.4,1.49A10,10,0,0,1,24,194.23l4.26,8.24H18.34l-4.7-8.69a6.36,6.36,0,0,0-1.59-2.19,3.67,3.67,0,0,0-2.15-.66H9.13v11.54Zm8.83-16.92h3.7a13.86,13.86,0,0,0,2.33-.38,2.34,2.34,0,0,0,1.42-.9,2.85,2.85,0,0,0-.32-3.76,5.26,5.26,0,0,0-3.27-.74H9.13Z"/><path d="M29.3,188.27q0-7,3.88-10.84c2.58-2.59,6.19-3.88,10.8-3.88s8.38,1.27,10.94,3.81,3.84,6.1,3.84,10.68a17.45,17.45,0,0,1-1.68,8.17,12,12,0,0,1-4.84,5A16.07,16.07,0,0,1,44.33,203a18.19,18.19,0,0,1-8-1.53,12,12,0,0,1-5.11-4.85A16.06,16.06,0,0,1,29.3,188.27Zm8.79,0q0,4.31,1.6,6.19A5.41,5.41,0,0,0,44,196.38a5.4,5.4,0,0,0,4.38-1.85c1-1.22,1.56-3.43,1.56-6.61,0-2.68-.54-4.63-1.62-5.87A5.56,5.56,0,0,0,44,180.2a5.37,5.37,0,0,0-4.27,1.88C38.62,183.34,38.09,185.41,38.09,188.31Z"/><path d="M82.43,190.83l7.7,2.33a14.13,14.13,0,0,1-2.45,5.41,10.59,10.59,0,0,1-4.14,3.28,15.59,15.59,0,0,1-6.29,1.1,18.45,18.45,0,0,1-7.58-1.34,12,12,0,0,1-5.07-4.74,16.12,16.12,0,0,1-2.13-8.69q0-7.05,3.75-10.84t10.62-3.79q5.37,0,8.45,2.17a12.79,12.79,0,0,1,4.57,6.67l-7.76,1.73a6.45,6.45,0,0,0-.86-1.9,4.94,4.94,0,0,0-1.8-1.55,5.53,5.53,0,0,0-7,1.85q-1.22,1.78-1.21,5.6,0,4.74,1.44,6.48a5.65,5.65,0,0,0,7.84.34A8.74,8.74,0,0,0,82.43,190.83Z"/><path d="M94.43,174h8.79v10.75l9.2-10.75h11.69l-10.38,10.73,10.85,17.71H113.76l-6-11.7-4.54,4.76v6.94H94.43Z"/><path d="M127.47,174H151v6.07H136.27v4.52H150v5.8H136.27V196h15.17v6.44h-24Z"/><path d="M154.18,174h26.71v7h-9v21.42h-8.78V181.05h-9Z"/><path d="M207.3,188.64l6.17,1.37a22,22,0,0,1-.93,2.74,24.14,24.14,0,0,1-1.26,2.42l3,2c.36.23.83.51,1.4.83l-4.25,4.89c-.78-.41-1.58-.89-2.42-1.43s-1.58-1-2.24-1.4a15.47,15.47,0,0,1-4.11,2,22.56,22.56,0,0,1-6.48.85q-5.68,0-8.46-2.36a7.28,7.28,0,0,1-2.77-5.74,7.47,7.47,0,0,1,1.63-4.59,12.27,12.27,0,0,1,5.33-3.66,13.91,13.91,0,0,1-2.13-3.27,7.16,7.16,0,0,1-.58-2.82,6.23,6.23,0,0,1,2.31-5q2.31-2,7-2t7,1.86a5.62,5.62,0,0,1,2.25,4.46,6,6,0,0,1-.69,2.79,7.06,7.06,0,0,1-1.66,2.18,38.41,38.41,0,0,1-3.47,2.48,50.64,50.64,0,0,0,4.33,3.86A17.26,17.26,0,0,0,207.3,188.64Zm-11.89,1.92a8.44,8.44,0,0,0-2.16,2,3.13,3.13,0,0,0-.53,1.72,3.32,3.32,0,0,0,1.22,2.52,4.55,4.55,0,0,0,3.18,1.11,9.2,9.2,0,0,0,4.75-1.65Q199.35,194.29,195.41,190.56Zm2.82-6.91a8.09,8.09,0,0,0,2.36-1.81,2.92,2.92,0,0,0,.84-1.85,2,2,0,0,0-.7-1.55,3.16,3.16,0,0,0-3.88.07,2.21,2.21,0,0,0-.76,1.65C196.09,181,196.8,182.13,198.23,183.65Z"/><path d="M239.12,190.83l7.7,2.33a14.28,14.28,0,0,1-2.45,5.41,10.59,10.59,0,0,1-4.14,3.28,15.62,15.62,0,0,1-6.29,1.1,18.45,18.45,0,0,1-7.58-1.34,12,12,0,0,1-5.07-4.74,16.12,16.12,0,0,1-2.13-8.69q0-7.05,3.75-10.84t10.62-3.79q5.37,0,8.45,2.17a12.79,12.79,0,0,1,4.57,6.67l-7.76,1.73a6.72,6.72,0,0,0-.86-1.9,4.94,4.94,0,0,0-1.8-1.55,5.53,5.53,0,0,0-7,1.85q-1.21,1.78-1.21,5.6,0,4.74,1.44,6.48a5.65,5.65,0,0,0,7.84.34A8.74,8.74,0,0,0,239.12,190.83Z"/><path d="M250,188.27q0-7,3.88-10.84c2.58-2.59,6.19-3.88,10.8-3.88s8.38,1.27,10.94,3.81,3.84,6.1,3.84,10.68a17.45,17.45,0,0,1-1.68,8.17,12,12,0,0,1-4.84,5A16.07,16.07,0,0,1,265,203a18.19,18.19,0,0,1-8-1.53,12,12,0,0,1-5.11-4.85A16.06,16.06,0,0,1,250,188.27Zm8.79,0q0,4.31,1.6,6.19a6,6,0,0,0,8.73,0c1-1.22,1.56-3.43,1.56-6.61,0-2.68-.54-4.63-1.62-5.87a5.56,5.56,0,0,0-4.4-1.85,5.33,5.33,0,0,0-4.26,1.88C259.3,183.34,258.77,185.41,258.77,188.31Z"/><path d="M282.64,194.55h8.44v7.92h-8.44Z"/></svg>