<svg id="Layer_1" data-name="Layer 1" xmlns="http://www.w3.org/2000/svg" viewBox="0 0 153 155"><title>logo-icon</title><path d="M122,77.63c-5.4,5.31-11.55,10.81-18.17,16.4L102,129.33a3.39,3.39,0,0,1-1.49,2.43L64.72,152.63a2.8,2.8,0,0,1-1.49.37,3.3,3.3,0,0,1-2.14-.84l-6-6a3.24,3.24,0,0,1-.75-3L62.3,117.5,36.12,91.32,10.41,99.24a2.42,2.42,0,0,1-.84.1,3.13,3.13,0,0,1-2.15-.84l-6-6A3.14,3.14,0,0,1,1,88.9L21.87,53.13a3.43,3.43,0,0,1,2.42-1.5L59.6,49.77C65.19,43.16,70.68,37,76,31.6,99.29,8.4,117.08,1,149.51,1a3.1,3.1,0,0,1,3.16,3C152.67,34.87,144.1,55.45,122,77.63Zm.84-55.81a8.95,8.95,0,1,0,8.94,9A8.95,8.95,0,0,0,122.86,21.82Z"/></svg>